<svg xmlns="http://www.w3.org/2000/svg" viewBox="0 0 700 380" font-family="'Segoe UI', system-ui, sans-serif"><rect width="700" height="380" fill="#fafbfc" rx="8"/><text x="350" y="24" text-anchor="middle" font-size="15" font-weight="600" fill="#1e293b">Documented Entity Count by Product Family</text><text x="350" y="38" text-anchor="middle" font-size="10" fill="#94a3b8">170 of 217 product families with countable entities</text><line x1="55" y1="310" x2="670" y2="310" stroke="#e2e8f0" stroke-width="0.5"/><text x="47" y="314" text-anchor="end" font-size="10" fill="#64748b">0</text><line x1="55" y1="258.0769230769231" x2="670" y2="258.0769230769231" stroke="#e2e8f0" stroke-width="0.5"/><text x="47" y="262.0769230769231" text-anchor="end" font-size="10" fill="#64748b">10</text><line x1="55" y1="206.15384615384613" x2="670" y2="206.15384615384613" stroke="#e2e8f0" stroke-width="0.5"/><text x="47" y="210.15384615384613" text-anchor="end" font-size="10" fill="#64748b">20</text><line x1="55" y1="154.23076923076925" x2="670" y2="154.23076923076925" stroke="#e2e8f0" stroke-width="0.5"/><text x="47" y="158.23076923076925" text-anchor="end" font-size="10" fill="#64748b">30</text><line x1="55" y1="102.30769230769229" x2="670" y2="102.30769230769229" stroke="#e2e8f0" stroke-width="0.5"/><text x="47" y="106.30769230769229" text-anchor="end" font-size="10" fill="#64748b">40</text><line x1="55" y1="50.38461538461536" x2="670" y2="50.38461538461536" stroke="#e2e8f0" stroke-width="0.5"/><text x="47" y="54.38461538461536" text-anchor="end" font-size="10" fill="#64748b">50</text><line x1="55" y1="-1.5384615384614904" x2="670" y2="-1.5384615384614904" stroke="#e2e8f0" stroke-width="0.5"/><text x="47" y="2.4615384615385096" text-anchor="end" font-size="10" fill="#64748b">60</text><text x="15" y="175" text-anchor="middle" font-size="11" fill="#475569" transform="rotate(-90 15 175)">Product families</text><rect x="57" y="154.23076923076925" width="64.33333333333333" height="155.76923076923075" fill="#3b82f6" rx="3"/><text x="89.16666666666666" y="149.23076923076925" text-anchor="middle" font-size="11" font-weight="600" fill="#334155">30</text><text x="89.16666666666666" y="326" text-anchor="middle" font-size="10" fill="#475569">1–10</text><rect x="125.33333333333333" y="40" width="64.33333333333333" height="270" fill="#3b82f6" rx="3"/><text x="157.5" y="35" text-anchor="middle" font-size="11" font-weight="600" fill="#334155">52</text><text x="157.5" y="326" text-anchor="middle" font-size="10" fill="#475569">11–25</text><rect x="193.66666666666666" y="102.30769230769229" width="64.33333333333333" height="207.6923076923077" fill="#3b82f6" rx="3"/><text x="225.83333333333331" y="97.30769230769229" text-anchor="middle" font-size="11" font-weight="600" fill="#334155">40</text><text x="225.83333333333331" y="326" text-anchor="middle" font-size="10" fill="#475569">26–50</text><rect x="262" y="232.11538461538464" width="64.33333333333333" height="77.88461538461537" fill="#3b82f6" rx="3"/><text x="294.1666666666667" y="227.11538461538464" text-anchor="middle" font-size="11" font-weight="600" fill="#334155">15</text><text x="294.1666666666667" y="326" text-anchor="middle" font-size="10" fill="#475569">51–100</text><rect x="330.3333333333333" y="247.69230769230768" width="64.33333333333333" height="62.307692307692314" fill="#2563eb" rx="3"/><text x="362.5" y="242.69230769230768" text-anchor="middle" font-size="11" font-weight="600" fill="#334155">12</text><text x="362.5" y="326" text-anchor="middle" font-size="10" fill="#475569">101–250</text><rect x="398.66666666666663" y="263.2692307692308" width="64.33333333333333" height="46.730769230769226" fill="#2563eb" rx="3"/><text x="430.8333333333333" y="258.2692307692308" text-anchor="middle" font-size="11" font-weight="600" fill="#334155">9</text><text x="430.8333333333333" y="326" text-anchor="middle" font-size="10" fill="#475569">251–500</text><rect x="467" y="289.2307692307692" width="64.33333333333333" height="20.76923076923077" fill="#1d4ed8" rx="3"/><text x="499.1666666666667" y="284.2307692307692" text-anchor="middle" font-size="11" font-weight="600" fill="#334155">4</text><text x="499.1666666666667" y="326" text-anchor="middle" font-size="10" fill="#475569">501–1K</text><rect x="535.3333333333333" y="289.2307692307692" width="64.33333333333333" height="20.76923076923077" fill="#1d4ed8" rx="3"/><text x="567.4999999999999" y="284.2307692307692" text-anchor="middle" font-size="11" font-weight="600" fill="#334155">4</text><text x="567.4999999999999" y="326" text-anchor="middle" font-size="10" fill="#475569">1K–2.5K</text><rect x="603.6666666666666" y="289.2307692307692" width="64.33333333333333" height="20.76923076923077" fill="#1e40af" rx="3"/><text x="635.8333333333333" y="284.2307692307692" text-anchor="middle" font-size="11" font-weight="600" fill="#334155">4</text><text x="635.8333333333333" y="326" text-anchor="middle" font-size="10" fill="#475569">2.5K+</text><text x="362.5" y="368" text-anchor="middle" font-size="11" fill="#475569">Documented entities in export</text><text x="665" y="58" text-anchor="end" font-size="9" fill="#94a3b8">Median: 27 · Mean: 230 · Max: 7,672 (Epic)</text></svg>